<svg fill="white" xmlns="http://www.w3.org/2000/svg" width="32" height="32" viewBox="0 0 32 32"><path fill-rule="evenodd" d="M 16 0 A 16 16 0 0 0 0 16 A 16 16 0 0 0 16 32 A 16 16 0 0 0 32 16 A 16 16 0 0 0 16 0 z M 13.458984 13 A 0.50005 0.50005 0 0 1 13.509766 13 L 18.509766 13 A 0.50005 0.50005 0 1 1 18.509766 14 L 13.509766 14 A 0.50064429 0.50064429 0 0 1 13.458984 13 z M 13.458984 16 A 0.50005 0.50005 0 0 1 13.509766 16 L 18.509766 16 A 0.50005 0.50005 0 1 1 18.509766 17 L 13.509766 17 A 0.50064429 0.50064429 0 0 1 13.458984 16 z M 13.458984 19 A 0.50005 0.50005 0 0 1 13.509766 19 L 18.509766 19 A 0.50005 0.50005 0 1 1 18.509766 20 L 13.509766 20 A 0.50064429 0.50064429 0 0 1 13.458984 19 z "/></svg>